<?xml version="1.0" encoding="UTF-8"?>
<svg id="Layer_1" data-name="Layer 1" xmlns="http://www.w3.org/2000/svg" xmlns:xlink="http://www.w3.org/1999/xlink" viewBox="0 0 271.57 171.41">
  <defs>
    <style>
      .cls-1 {
        fill: url(#linear-gradient);
      }

      .cls-1, .cls-2, .cls-3, .cls-4, .cls-5, .cls-6, .cls-7, .cls-8, .cls-9, .cls-10, .cls-11 {
        stroke-width: 0px;
      }

      .cls-2 {
        fill: url(#linear-gradient-4);
      }

      .cls-3 {
        fill: url(#linear-gradient-2);
      }

      .cls-4 {
        fill: url(#linear-gradient-3);
      }

      .cls-5 {
        fill: url(#linear-gradient-7);
      }

      .cls-6 {
        fill: url(#linear-gradient-5);
      }

      .cls-7 {
        fill: url(#linear-gradient-6);
      }

      .cls-8 {
        fill: #391219;
      }

      .cls-9 {
        fill: #fff;
      }

      .cls-10 {
        fill: #ed1a44;
      }

      .cls-11 {
        fill: #f0e1ef;
      }
    </style>
    <linearGradient id="linear-gradient" x1="35.29" y1="1650.92" x2="93.79" y2="1614.78" gradientTransform="translate(116.63 1752.74) rotate(-180)" gradientUnits="userSpaceOnUse">
      <stop offset="0" stop-color="#f27ba4"/>
      <stop offset=".4" stop-color="#ef537c"/>
      <stop offset="1" stop-color="#ed1a44"/>
    </linearGradient>
    <linearGradient id="linear-gradient-2" x1="283.82" y1="51.41" x2="125.38" y2="51.04" gradientUnits="userSpaceOnUse">
      <stop offset="0" stop-color="#f27ba4"/>
      <stop offset=".1" stop-color="#f06089"/>
      <stop offset=".21" stop-color="#ef4670"/>
      <stop offset=".35" stop-color="#ee325c"/>
      <stop offset=".5" stop-color="#ed244e"/>
      <stop offset=".68" stop-color="#ed1c46"/>
      <stop offset="1" stop-color="#ed1a44"/>
    </linearGradient>
    <linearGradient id="linear-gradient-3" x1="283.82" y1="52.43" x2="125.38" y2="52.06" xlink:href="#linear-gradient-2"/>
    <linearGradient id="linear-gradient-4" x1="283.82" y1="51.54" x2="125.38" y2="51.17" xlink:href="#linear-gradient-2"/>
    <linearGradient id="linear-gradient-5" x1="283.82" y1="52.69" x2="125.38" y2="52.32" gradientUnits="userSpaceOnUse">
      <stop offset="0" stop-color="#f27ba4"/>
      <stop offset=".1" stop-color="#f06089"/>
      <stop offset=".21" stop-color="#ef4670"/>
      <stop offset=".35" stop-color="#ee325c"/>
      <stop offset=".5" stop-color="#ed244e"/>
      <stop offset=".68" stop-color="#ed1c46"/>
      <stop offset="1" stop-color="#ed1a44"/>
    </linearGradient>
    <linearGradient id="linear-gradient-6" x1="283.82" y1="52.61" x2="125.38" y2="52.24" xlink:href="#linear-gradient-2"/>
    <linearGradient id="linear-gradient-7" x1="176.56" y1="92.17" x2="193.12" y2="92.17" xlink:href="#linear-gradient-2"/>
  </defs>
  <g>
    <path class="cls-8" d="m101.47,16.12c-.72.49-1.38,1.28-2.15,1.42-2.19.37-4.43.57-6.66.64-2.39.08-4.28.61-5.22,3.16-.23.64-1.44,1.21-2.26,1.32-18,2.3-36.01,4.56-54.02,6.77-.78.09-1.74.15-2.43-.13.23-.91.46-1.81.69-2.72.92-3.66-.53-6.98-3.78-8.74,9.36-.58,18.61-1.17,27.86-1.74,6.69-.41,13.38-.79,20.06-1.25,1.46-.1,2.35-.02,3.15,1.62,2.42,4.96,7.89,5.11,11.15.54.37-.52,1.11-1,1.74-1.07,3.18-.4,6.37-.74,9.57-.89.75-.04,1.53.71,2.3,1.09Z"/>
    <g>
      <path class="cls-8" d="m0,116.43c.03-1.07-.06-2.16.09-3.21,4.23-28.58,8.48-57.15,12.71-85.73.13-.86.13-1.74.16-2.61.1-3.4,1.35-6.04,4.56-7.1-.42-1.52-.95-2.91-1.19-4.36-.57-3.35-.97-6.74-1.51-10.09-.35-2.17.71-2.97,2.68-3.25,1.87-.27,3.03.2,3.31,2.22.55,3.95,1.21,7.88,1.66,11.84.12,1.04-.38,2.16-.62,3.41.9.36,2,.7,3.01,1.21,2.97,1.49,4.24,4.33,3.43,7.55-4.41,17.61-9.08,35.16-13.12,52.85-1.89,8.3-6.55,15.06-10.29,22.37-.47.92-1.02,1.85-1.22,2.84-.62,3.14-1.05,6.32-1.62,9.47-.17.95-.56,1.86-.85,2.78-.4-.06-.79-.12-1.19-.17ZM21.7,29.04c1.92-.54,3.15-2.7,2.59-4.57-.57-1.92-2.78-3.19-4.6-2.5-1.98.74-2.89,2.26-2.47,4.37.4,1.96,2.61,3.23,4.48,2.71Z"/>
      <path class="cls-10" d="m86.49,15.23c-.54,2.34-3.01,3.82-5.35,3.2-2.25-.6-3.6-2.88-3.05-5.16.55-2.3,2.76-3.74,5.03-3.28,2.37.48,3.92,2.88,3.38,5.25Z"/>
      <path class="cls-10" d="m20.16,22.72c1.38,1.32,2.75,2.04,2.82,2.87.08.87-.99,2.49-1.75,2.61-.81.14-2.38-.92-2.64-1.77-.25-.79.77-1.98,1.57-3.72Z"/>
      <path class="cls-8" d="m51.33,171.41C23.18,171.41.28,148.51.28,120.36s22.9-51.05,51.05-51.05,51.05,22.9,51.05,51.05-22.9,51.05-51.05,51.05Zm0-91.77c-22.45,0-40.72,18.27-40.72,40.72s18.27,40.72,40.72,40.72,40.72-18.27,40.72-40.72-18.27-40.72-40.72-40.72Z"/>
      <g>
        <path class="cls-8" d="m104.53,19.31v-7.01h-2.76v-1.63h7.53v1.63h-2.76v7.01h-2Z"/>
        <path class="cls-8" d="m110.36,19.31v-8.64h2.01v8.64h-2.01Zm1.85-3.54v-1.69h4.22v1.69h-4.22Zm4.07,3.54v-8.64h2v8.64h-2Z"/>
      </g>
      <circle class="cls-1" cx="51.33" cy="120.36" r="34.38"/>
      <g>
        <rect class="cls-9" x="50.7" y="118.39" width="1.23" height=".68" transform="translate(-52.52 41.6) rotate(-30.02)"/>
        <path class="cls-9" d="m54.1,117.51l-.34-.59,2.33-1.35.34.59-2.33,1.35Zm4.66-2.69l-.34-.59,2.33-1.35.34.59-2.33,1.35Zm4.66-2.69l-.34-.59,2.33-1.35.34.59-2.33,1.35Zm4.66-2.69l-.34-.59,2.33-1.35.34.59-2.33,1.35Zm4.66-2.69l-.34-.59,2.33-1.35.34.59-2.33,1.35Zm4.66-2.69l-.34-.59,2.33-1.35.34.59-2.33,1.35Zm4.66-2.69l-.34-.59.23-.13.34.59-.23.13Z"/>
        <rect class="cls-9" x="83.1" y="99.68" width="1.23" height=".68" transform="translate(-38.81 55.31) rotate(-30.02)"/>
      </g>
      <path class="cls-9" d="m50.78,144.62c-.49,0-.97-.01-1.45-.04l.04-.68c.89.05,1.81.05,2.7,0l.03.68c-.44.02-.88.03-1.32.03Zm4.08-.32l-.11-.68c.89-.14,1.78-.34,2.64-.57l.18.66c-.88.24-1.8.44-2.71.59Zm-8.29-.02c-.91-.15-1.82-.35-2.71-.6l.18-.66c.86.24,1.75.44,2.64.59l-.11.68Zm13.63-1.45l-.25-.64c.83-.33,1.66-.71,2.45-1.13l.32.61c-.82.43-1.66.82-2.52,1.16Zm-18.97-.05c-.86-.35-1.7-.74-2.51-1.18l.32-.6c.79.42,1.61.81,2.45,1.14l-.26.64Zm23.87-2.54l-.38-.57c.74-.5,1.46-1.05,2.15-1.63l.44.52c-.7.6-1.45,1.16-2.21,1.68Zm-28.75-.07c-.76-.52-1.5-1.09-2.2-1.69l.45-.52c.68.59,1.4,1.14,2.14,1.64l-.39.57Zm32.98-3.51l-.5-.47c.62-.65,1.21-1.34,1.75-2.06l.54.42c-.56.73-1.17,1.44-1.8,2.11Zm-37.19-.1c-.63-.67-1.23-1.39-1.79-2.12l.55-.41c.54.71,1.13,1.41,1.74,2.06l-.5.47Zm40.55-4.31l-.59-.35c.46-.77.89-1.57,1.27-2.38l.62.29c-.39.84-.83,1.66-1.3,2.45Zm-43.89-.11c-.47-.79-.91-1.62-1.29-2.46l.62-.28c.37.82.8,1.62,1.26,2.39l-.59.35Zm46.22-4.91l-.65-.22c.29-.85.53-1.73.72-2.6l.67.15c-.2.9-.45,1.8-.74,2.67Zm-48.53-.12c-.29-.87-.54-1.77-.73-2.68l.67-.14c.19.88.43,1.75.71,2.6l-.65.22Zm49.72-5.29l-.68-.07c.1-.89.14-1.8.14-2.7h.68c0,.92-.05,1.86-.15,2.77Zm-50.88-.13c-.09-.87-.13-1.76-.13-2.64v-.13s.69,0,.69,0v.12c0,.86.04,1.72.13,2.57l-.68.07Zm50.22-5.09c-.09-.89-.22-1.79-.41-2.67l.67-.14c.19.9.33,1.83.42,2.74l-.68.07Zm-49.51-.37l-.68-.08c.1-.92.26-1.84.46-2.74l.67.15c-.2.87-.35,1.77-.45,2.66Zm48.41-4.9c-.28-.85-.61-1.7-.98-2.52l.62-.28c.38.84.72,1.71,1,2.59l-.65.21Zm-47.23-.36l-.65-.22c.3-.87.65-1.74,1.04-2.57l.62.29c-.38.81-.72,1.66-1.01,2.5Zm45.01-4.56c-.46-.77-.96-1.53-1.5-2.25l.55-.41c.55.74,1.07,1.51,1.54,2.31l-.59.35Zm-42.71-.32l-.58-.36c.48-.79,1.01-1.56,1.57-2.29l.54.42c-.55.71-1.06,1.46-1.53,2.22Zm39.48-4c-.61-.66-1.27-1.29-1.94-1.87l.45-.52c.69.6,1.37,1.25,2,1.93l-.5.47Zm-36.19-.28l-.49-.47c.64-.67,1.32-1.3,2.03-1.9l.44.52c-.69.58-1.35,1.2-1.97,1.84Zm32.11-3.25c-.74-.51-1.51-.99-2.3-1.41l.33-.6c.81.44,1.61.93,2.36,1.45l-.39.56Zm-27.98-.21l-.38-.57c.77-.51,1.57-.99,2.38-1.42l.32.61c-.79.42-1.58.88-2.32,1.38Zm23.24-2.36c-.83-.34-1.69-.64-2.55-.88l.19-.66c.88.25,1.77.56,2.62.91l-.26.63Zm-18.46-.14l-.25-.64c.86-.34,1.75-.63,2.64-.87l.18.66c-.86.23-1.73.52-2.56.84Zm13.28-1.34c-.88-.15-1.79-.25-2.68-.31l.04-.68c.92.06,1.85.16,2.76.32l-.12.68Zm-8.07-.06l-.11-.68c.91-.14,1.84-.23,2.76-.28l.03.68c-.9.04-1.8.13-2.69.27Z"/>
    </g>
  </g>
  <g>
    <polygon class="cls-3" points="246.05 53.6 249.85 53.6 247.95 49.04 246.05 53.6"/>
    <path class="cls-4" d="m223.05,49.52c-.34-.35-.74-.62-1.19-.8-.45-.19-.94-.28-1.48-.28s-1.03.09-1.49.28c-.46.19-.85.46-1.19.8-.34.35-.6.75-.79,1.21-.19.46-.28.98-.28,1.55s.09,1.09.28,1.55c.19.46.45.87.79,1.21.34.35.73.62,1.19.8.46.19.95.28,1.49.28s1.03-.09,1.48-.28c.45-.19.85-.46,1.19-.8.34-.35.61-.75.8-1.21.19-.46.28-.98.28-1.55s-.09-1.09-.28-1.55c-.19-.46-.45-.87-.8-1.21Z"/>
    <polygon class="cls-2" points="189.1 53.6 192.89 53.6 191 49.04 189.1 53.6"/>
    <path class="cls-6" d="m123.02,43.27v18.44h145.57v-18.44H123.02Zm14.87,15h-2.29l-5.95-7.27v7.27h-2.74v-11.98h2.29l5.95,7.27v-7.27h2.74v11.98Zm14.05-2.83c-.56.9-1.33,1.59-2.33,2.09-.99.5-2.14.74-3.44.74h-5.44v-11.98h5.44c1.3,0,2.45.25,3.44.74.99.5,1.77,1.19,2.33,2.09.56.9.84,1.95.84,3.16s-.28,2.26-.84,3.16Zm5.26-1.6c.19.47.45.87.8,1.21.34.34.75.61,1.21.8.47.19.98.28,1.54.28.59,0,1.14-.12,1.65-.37.51-.25.96-.6,1.36-1.07l1.8,1.64c-.57.7-1.28,1.23-2.12,1.59-.84.36-1.79.55-2.84.55-.92,0-1.78-.15-2.57-.45-.79-.3-1.48-.73-2.06-1.29-.58-.56-1.03-1.21-1.36-1.97-.32-.75-.49-1.58-.49-2.48s.16-1.73.49-2.48c.33-.75.78-1.41,1.37-1.97.59-.56,1.28-.99,2.07-1.29.79-.3,1.65-.45,2.57-.45,1.04,0,1.98.18,2.82.54.84.36,1.55.89,2.12,1.58l-1.8,1.64c-.4-.47-.85-.82-1.36-1.06-.51-.24-1.06-.36-1.65-.36-.56,0-1.07.09-1.54.28-.47.19-.87.45-1.21.8-.34.34-.61.75-.8,1.21-.19.47-.28.99-.28,1.56s.09,1.09.28,1.56Zm25.86,4.43h-2.29l-5.95-7.26v7.26h-2.74v-11.98h2.29l5.95,7.27v-7.27h2.74v11.98Zm11.79,0l-1.07-2.57h-5.55l-1.07,2.57h-2.84l5.32-11.98h2.74l5.37,11.98h-2.91Zm12.64-9.72h-3.83v9.72h-2.77v-9.72h-3.83v-2.26h10.44v2.26Zm4.28,9.72h-2.79v-11.98h2.79v11.98Zm14.69-3.52c-.32.76-.78,1.42-1.38,1.98-.59.56-1.29.99-2.08,1.29-.79.3-1.66.45-2.59.45s-1.82-.15-2.62-.46c-.8-.31-1.49-.74-2.09-1.3-.59-.56-1.05-1.21-1.38-1.97-.32-.75-.49-1.57-.49-2.46s.16-1.73.49-2.47c.33-.75.78-1.4,1.38-1.96.59-.56,1.29-.99,2.08-1.3.79-.31,1.66-.46,2.61-.46s1.82.15,2.61.45c.79.3,1.49.73,2.08,1.29.59.56,1.05,1.21,1.38,1.97.33.75.49,1.58.49,2.48s-.16,1.71-.49,2.47Zm13.56,3.52h-2.29l-5.95-7.26v7.26h-2.74v-11.98h2.29l5.95,7.27v-7.27h2.74v11.98Zm11.79,0l-1.07-2.57h-5.55l-1.07,2.57h-2.84l5.32-11.98h2.74l5.37,11.98h-2.91Zm12.92,0h-8.76v-11.98h2.79v9.72h5.97v2.26Z"/>
    <path class="cls-7" d="m148.11,49.01c-.59-.3-1.28-.45-2.08-.45h-2.51v7.46h2.51c.8,0,1.49-.15,2.08-.45.59-.3,1.04-.74,1.37-1.3.32-.56.49-1.22.49-1.98s-.16-1.43-.49-1.98c-.33-.56-.78-.99-1.37-1.29Z"/>
  </g>
  <path class="cls-8" d="m123.02,102.2v-34.6h6.62l14.73,24.42h-3.51l14.43-24.42h6.67v34.6h-7.46l-.1-23.08h1.48l-11.67,19.38h-3.56l-11.81-19.38h1.63v23.08h-7.46Z"/>
  <polygon class="cls-8" points="165.63 102.2 181 67.6 188.91 67.6 204.43 102.2 196.03 102.2 183.32 71.65 186.54 71.65 173.83 102.2 165.63 102.2"/>
  <path class="cls-8" d="m213.48,102.2v-28.08h-11.07v-6.52h30.15v6.52h-11.07v28.08h-8.01Z"/>
  <path class="cls-8" d="m236.86,102.2v-34.6h8.06v34.6h-8.06Zm7.41-14.19v-6.77h16.91v6.77h-16.91Zm16.31,14.19v-34.6h8.01v34.6h-8.01Z"/>
  <path class="cls-8" d="m124.48,122.33v-12.31h9.3v2.29h-6.43v10.02h-2.87Zm2.64-4.48v-2.29h5.91v2.29h-5.91Z"/>
  <path class="cls-8" d="m136.76,122.33v-12.31h9.3v2.29h-6.47v7.74h6.7v2.29h-9.53Zm2.62-5.13v-2.23h5.92v2.23h-5.92Z"/>
  <path class="cls-8" d="m153.68,122.54c-.98,0-1.93-.13-2.84-.4-.91-.26-1.64-.61-2.19-1.03l.97-2.14c.52.38,1.14.68,1.86.92s1.46.36,2.2.36c.56,0,1.02-.06,1.36-.18.35-.12.6-.27.77-.47.16-.19.25-.42.25-.68,0-.33-.13-.59-.39-.78-.26-.19-.6-.35-1.03-.47-.43-.12-.89-.24-1.4-.35-.5-.11-1.01-.25-1.52-.4-.51-.16-.98-.37-1.41-.63-.43-.26-.77-.61-1.02-1.04-.25-.43-.38-.96-.38-1.61,0-.7.19-1.34.56-1.92.37-.58.95-1.04,1.71-1.39.77-.35,1.73-.52,2.89-.52.77,0,1.54.09,2.29.28.76.19,1.42.46,1.98.81l-.9,2.14c-.55-.32-1.12-.55-1.71-.71-.59-.16-1.15-.24-1.69-.24s-1.01.06-1.35.18-.59.29-.75.5c-.16.21-.24.45-.24.7,0,.33.13.59.39.79.26.2.6.35,1.02.47.42.11.89.22,1.41.33.52.11,1.03.25,1.53.41.5.16.97.37,1.39.62.42.25.77.59,1.03,1.02.26.43.4.96.4,1.59,0,.69-.19,1.32-.57,1.9-.38.57-.96,1.04-1.73,1.39-.77.35-1.74.53-2.9.53Z"/>
  <path class="cls-8" d="m164.24,122.33v-9.99h-3.94v-2.32h10.72v2.32h-3.94v9.99h-2.85Z"/>
  <path class="cls-8" d="m173.61,122.33v-12.31h2.87v12.31h-2.87Z"/>
  <path class="cls-8" d="m183.86,122.33l-5.33-12.31h3.09l4.64,10.9h-1.81l4.71-10.9h2.83l-5.33,12.31h-2.81Z"/>
  <path class="cls-8" d="m192.11,122.33l5.47-12.31h2.81l5.52,12.31h-2.99l-4.52-10.86h1.14l-4.52,10.86h-2.92Zm2.76-2.64l.72-2.16h6.36l.74,2.16h-7.82Z"/>
  <path class="cls-8" d="m208.24,122.33v-12.31h2.87v9.99h6.14v2.32h-9Z"/>
  <path class="cls-8" d="m219.04,118.51v-2.2h4.97v2.2h-4.97Z"/>
  <path class="cls-8" d="m226.37,122.44v-1.85l4.75-4.48c.37-.34.65-.64.83-.91.18-.26.3-.51.36-.74.06-.23.09-.44.09-.64,0-.48-.16-.86-.49-1.13-.33-.27-.82-.4-1.48-.4-.53,0-1.01.11-1.44.32-.43.21-.8.52-1.11.93l-2.06-1.34c.46-.7,1.11-1.26,1.95-1.67s1.82-.62,2.92-.62c.91,0,1.72.15,2.41.44s1.23.71,1.61,1.26c.38.55.57,1.19.57,1.94,0,.39-.06.78-.17,1.18s-.31.81-.61,1.25c-.29.43-.73.92-1.3,1.46l-3.94,3.69-.55-1.02h6.96v2.32h-9.32Z"/>
  <path class="cls-8" d="m242.69,122.54c-1.01,0-1.91-.25-2.7-.75-.79-.5-1.42-1.22-1.88-2.16s-.69-2.09-.69-3.45.23-2.51.69-3.45,1.09-1.66,1.88-2.16c.79-.5,1.69-.75,2.7-.75s1.93.25,2.72.75,1.42,1.22,1.88,2.16c.46.94.69,2.1.69,3.45s-.23,2.51-.69,3.45c-.46.94-1.09,1.66-1.88,2.16-.79.5-1.7.75-2.72.75Zm0-2.39c.48,0,.9-.14,1.26-.41.36-.28.64-.71.84-1.29.2-.59.31-1.34.31-2.27s-.1-1.68-.31-2.27c-.21-.59-.49-1.02-.84-1.29s-.78-.41-1.26-.41-.87.14-1.23.41-.65.71-.86,1.29-.32,1.34-.32,2.27.11,1.68.32,2.27c.21.59.5,1.02.86,1.29.36.28.77.41,1.23.41Z"/>
  <path class="cls-8" d="m250.25,122.44v-1.85l4.75-4.48c.37-.34.65-.64.83-.91.18-.26.3-.51.36-.74.06-.23.09-.44.09-.64,0-.48-.16-.86-.49-1.13-.33-.27-.82-.4-1.48-.4-.53,0-1.01.11-1.44.32-.43.21-.8.52-1.11.93l-2.06-1.34c.46-.7,1.11-1.26,1.95-1.67s1.82-.62,2.92-.62c.91,0,1.72.15,2.41.44s1.23.71,1.61,1.26c.38.55.57,1.19.57,1.94,0,.39-.06.78-.17,1.18s-.31.81-.61,1.25c-.29.43-.73.92-1.3,1.46l-3.94,3.69-.55-1.02h6.96v2.32h-9.32Z"/>
  <polygon class="cls-5" points="176.56 102.2 185.03 82.14 193.12 102.2 176.56 102.2"/>
  <path class="cls-8" d="m271.53,129.87h-6.4v-.89h6.4v.89Zm-8.62,0h-6.66v-.89h6.66v.89Zm-8.88,0h-6.66v-.89h6.66v.89Zm-8.88,0h-6.66v-.89h6.66v.89Zm-8.88,0h-6.66v-.89h6.66v.89Zm-8.88,0h-6.66v-.89h6.66v.89Zm-8.88,0h-6.66v-.89h6.66v.89Zm-8.88,0h-6.66v-.89h6.66v.89Zm-8.88,0h-6.66v-.89h6.66v.89Zm-8.88,0h-6.66v-.89h6.66v.89Zm-8.88,0h-6.66v-.89h6.66v.89Zm-8.88,0h-6.66v-.89h6.66v.89Zm-8.88,0h-6.66v-.89h6.66v.89Zm-8.88,0h-6.66v-.89h6.66v.89Zm-8.88,0h-6.66v-.89h6.66v.89Zm-8.88,0h-6.66v-.89h6.66v.89Zm-8.88,0h-6.66v-.89h6.66v.89Z"/>
  <path class="cls-8" d="m266.99,122.44c-1.11,0-2.06-.23-2.87-.68-.81-.45-1.43-1.13-1.88-2.02-.44-.89-.67-1.99-.67-3.28,0-1.41.26-2.59.79-3.56.52-.97,1.25-1.71,2.18-2.21.93-.51,2-.76,3.22-.76.63,0,1.25.07,1.83.22.59.14,1.09.35,1.52.61l-1.04,2.06c-.33-.23-.69-.39-1.07-.48-.38-.09-.78-.13-1.19-.13-1.04,0-1.87.32-2.49.96-.62.64-.93,1.58-.93,2.81,0,.21,0,.44.02.69.01.25.05.51.1.76l-.78-.73c.22-.45.5-.83.85-1.13.35-.31.76-.54,1.24-.69.48-.15,1.01-.23,1.58-.23.78,0,1.49.15,2.11.47.62.31,1.12.75,1.5,1.31.37.57.56,1.23.56,1.99,0,.82-.2,1.53-.61,2.14-.4.61-.95,1.07-1.64,1.4-.69.33-1.47.49-2.33.49Zm-.15-2.09c.39,0,.74-.07,1.05-.22.31-.14.54-.35.72-.63.17-.28.26-.59.26-.95,0-.55-.19-.99-.56-1.32-.37-.33-.87-.49-1.5-.49-.42,0-.78.08-1.09.24-.31.16-.56.38-.73.65-.18.27-.27.59-.27.94,0,.33.09.64.26.91.17.27.42.48.73.64.31.15.69.23,1.14.23Z"/>
  <path class="cls-11" d="m236.97,124.97c.21,0,.43,0,.64,0-.15.07-.3.16-.45.2-.04.01-.12-.13-.19-.19Z"/>
</svg>